ModelForces
version=1
nRows=4
nColumns=155
inDegrees=no

This file contains the forces exerted on a model during a simulation.

A force is a generalized force, meaning that it can be either a force (N) or a torque (Nm).

Units are S.I. units (second, meters, Newtons, ...)
Angles are in degrees.

endheader
time	glut_med1_r	glut_med2_r	glut_med3_r	glut_min1_r	glut_min2_r	glut_min3_r	semimem_r	semiten_r	bifemlh_r	bifemsh_r	sar_r	add_long_r	add_brev_r	add_mag1_r	add_mag2_r	add_mag3_r	tfl_r	pect_r	grac_r	glut_max1_r	glut_max2_r	glut_max3_r	iliacus_r	psoas_r	quad_fem_r	gem_r	peri_r	rect_fem_r	vas_med_r	vas_int_r	vas_lat_r	med_gas_r	lat_gas_r	soleus_r	tib_post_r	flex_dig_r	flex_hal_r	tib_ant_r	per_brev_r	per_long_r	per_tert_r	ext_dig_r	ext_hal_r	glut_med1_l	glut_med2_l	glut_med3_l	glut_min1_l	glut_min2_l	glut_min3_l	semimem_l	semiten_l	bifemlh_l	bifemsh_l	sar_l	add_long_l	add_brev_l	add_mag1_l	add_mag2_l	add_mag3_l	tfl_l	pect_l	grac_l	glut_max1_l	glut_max2_l	glut_max3_l	iliacus_l	psoas_l	quad_fem_l	gem_l	peri_l	rect_fem_l	vas_med_l	vas_int_l	vas_lat_l	med_gas_l	lat_gas_l	soleus_l	tib_post_l	flex_dig_l	flex_hal_l	tib_ant_l	per_brev_l	per_long_l	per_tert_l	ext_dig_l	ext_hal_l	ercspn_r	ercspn_l	intobl_r	intobl_l	extobl_r	extobl_l	femur_lat_meniscii_r.femur_lat_r.force.X	femur_lat_meniscii_r.femur_lat_r.force.Y	femur_lat_meniscii_r.femur_lat_r.force.Z	femur_lat_meniscii_r.femur_lat_r.torque.X	femur_lat_meniscii_r.femur_lat_r.torque.Y	femur_lat_meniscii_r.femur_lat_r.torque.Z	femur_lat_meniscii_r.meniscus_lat_r.force.X	femur_lat_meniscii_r.meniscus_lat_r.force.Y	femur_lat_meniscii_r.meniscus_lat_r.force.Z	femur_lat_meniscii_r.meniscus_lat_r.torque.X	femur_lat_meniscii_r.meniscus_lat_r.torque.Y	femur_lat_meniscii_r.meniscus_lat_r.torque.Z	femur_med_meniscii_r.femur_med_r.force.X	femur_med_meniscii_r.femur_med_r.force.Y	femur_med_meniscii_r.femur_med_r.force.Z	femur_med_meniscii_r.femur_med_r.torque.X	femur_med_meniscii_r.femur_med_r.torque.Y	femur_med_meniscii_r.femur_med_r.torque.Z	femur_med_meniscii_r.meniscus_med_r.force.X	femur_med_meniscii_r.meniscus_med_r.force.Y	femur_med_meniscii_r.meniscus_med_r.force.Z	femur_med_meniscii_r.meniscus_med_r.torque.X	femur_med_meniscii_r.meniscus_med_r.torque.Y	femur_med_meniscii_r.meniscus_med_r.torque.Z	femur_med_tibia_r.tibia_upper_r.force.X	femur_med_tibia_r.tibia_upper_r.force.Y	femur_med_tibia_r.tibia_upper_r.force.Z	femur_med_tibia_r.tibia_upper_r.torque.X	femur_med_tibia_r.tibia_upper_r.torque.Y	femur_med_tibia_r.tibia_upper_r.torque.Z	femur_med_tibia_r.femur_med_r.force.X	femur_med_tibia_r.femur_med_r.force.Y	femur_med_tibia_r.femur_med_r.force.Z	femur_med_tibia_r.femur_med_r.torque.X	femur_med_tibia_r.femur_med_r.torque.Y	femur_med_tibia_r.femur_med_r.torque.Z	femur_lat_tibia_r.tibia_upper_r.force.X	femur_lat_tibia_r.tibia_upper_r.force.Y	femur_lat_tibia_r.tibia_upper_r.force.Z	femur_lat_tibia_r.tibia_upper_r.torque.X	femur_lat_tibia_r.tibia_upper_r.torque.Y	femur_lat_tibia_r.tibia_upper_r.torque.Z	femur_lat_tibia_r.femur_lat_r.force.X	femur_lat_tibia_r.femur_lat_r.force.Y	femur_lat_tibia_r.femur_lat_r.force.Z	femur_lat_tibia_r.femur_lat_r.torque.X	femur_lat_tibia_r.femur_lat_r.torque.Y	femur_lat_tibia_r.femur_lat_r.torque.Z	aACL_R	pACL_R	aPCL_R	pPCL_R	aMCL_R	mMCL_R	pMCL_R	aLCL_R	mLCL_R	pLCL_R	aPCL_L	pPCL_L	aMCL_L	aLCL_L
      0.10746588	      8.01821132	     11.39000868	     12.28292001	      5.19644304	      5.95485770	      6.60463620	    114.67752141	    167.78098349	    233.55666208	    368.45470400	    125.66531074	     11.37672373	      8.04318969	      0.00000000	      4.86473932	      8.55583113	      5.03581230	      0.53067277	     99.93999693	      7.36301488	     11.21507561	      8.46433698	     33.20511427	     24.97917093	      7.07640695	      4.58935542	      3.98898702	     38.90968404	      0.00000000	      0.00000000	      0.00000000	     22.50657621	      0.71044094	      0.00000000	      0.03652173	      2.56702296	      0.12222870	     30.32939842	      2.53939243	      3.82416888	      0.00000000	     17.29563454	      5.43763711	      8.01821132	     11.39000868	     12.28292001	      5.19644304	      5.95485770	      6.60463620	      0.00000000	      8.58909526	     14.92030710	     14.31839483	      2.96089233	     11.37672373	      8.04318969	      0.00000000	      4.86473932	      8.55583113	      6.89069579	      0.53067277	      3.07225598	      7.36301488	     11.21507561	      8.46433698	     33.20511427	     24.97917093	      7.07640695	      4.58935542	      3.98898702	     23.60208450	      0.00000000	      0.00000000	      0.00000000	     16.00880107	      8.33634815	     58.04665947	     57.82527511	      7.96349444	      7.36195826	     16.84451556	      9.50243136	     21.83632130	      3.85542029	     11.50804933	      3.89392199	     48.94426192	     48.94426192	     18.59428240	     18.59428240	     35.51881573	     35.51881573	     51.31227361	    251.43715202	     39.62557405	    -22.38141855	      1.34830712	     20.26770929	    -51.31227361	   -251.43715202	    -39.62557405	      7.78026307	     -1.85585568	      1.86029943	    -28.44226255	     52.85195201	      5.05637487	     -0.81869843	      0.67256927	    -11.65331156	     28.44226255	    -52.85195201	     -5.05637487	     -0.99918585	     -0.66104692	      1.30721928	    -85.00374800	   -508.45751036	    117.83959182	    -12.11835478	      2.22751347	      0.89214558	     85.00374800	    508.45751036	   -117.83959182	     58.27849240	     -1.23617919	     36.68296815	    -45.39285525	   -174.59824761	    -44.15304099	      5.97094632	     -1.61879696	      0.25987656	     45.39285525	    174.59824761	     44.15304099	    -22.47053919	      1.07894616	     18.83780314	     11.61019388	    -10.98474581	      0.00000000	     55.21896466	      0.00000000	      0.00000000	    -36.61464971	      0.00000000	      0.00000000	      0.00000000	      0.00000000	      0.00000000	      0.00000001	      0.00000000
      0.10836019	      8.80626414	     11.32193993	     12.20991940	      5.16639571	      5.92172643	      6.57269437	    114.34197266	    167.59440767	    231.56303055	    366.85941080	    125.85768574	     11.30773999	      7.99709794	      0.00000000	      4.84808486	      8.50304422	      5.03802163	      2.40642501	     99.99805347	      7.31920594	     11.14731731	      8.41255054	     33.07725828	     24.83360500	      7.05429226	      4.56841833	      4.15756798	     38.74441070	      0.00000000	      0.00000000	      0.00000000	     24.21307681	      0.67556175	      0.00000000	      0.00000000	      2.20500699	      0.00000000	     30.14673590	      2.81699931	      3.95953386	      6.67819906	     17.22960702	      5.41076216	      8.80626414	     11.32193993	     12.20991940	      5.16639571	      5.92172643	      6.57269437	      0.00000000	      8.53507463	     14.91202000	     14.23380467	      2.94384838	     11.30773999	      7.99709794	      0.00000000	      4.84808486	      8.50304422	      6.85962485	      2.40642501	      3.05427790	      7.31920594	     11.14731731	      8.41255054	     33.07725828	     24.83360500	      7.05429226	      4.56841833	      4.15756798	     23.47236608	      0.00000000	      0.00000000	      0.00000000	     16.33443221	      8.45656301	     58.09176481	     57.72876046	      7.87023636	      7.26237398	     16.81805690	      9.46492331	     21.79685545	      3.83323115	     11.60462014	      3.92461382	     48.66066510	     48.66066510	     18.47931102	     18.47931102	     35.41285138	     35.41285138	     47.95736901	    251.69506932	     39.17424328	    -22.20069298	      1.25060844	     18.82460812	    -47.95736901	   -251.69506932	    -39.17424328	      7.76290714	     -1.74976400	      2.05730686	    -27.29458382	     53.01211618	      5.76856172	     -1.11165045	      0.64085672	    -11.17861507	     27.29458382	    -53.01211618	     -5.76856172	     -0.98020741	     -0.64076730	      1.27993798	    -89.22203484	   -508.21953892	    116.84067098	    -12.08137904	      2.30785082	      0.82344132	     89.22203484	    508.21953892	   -116.84067098	     57.83998929	     -1.31657688	     38.43053650	    -43.02559875	   -166.26688577	    -42.15820899	      5.67811020	     -1.54686753	      0.30424572	     43.02559875	    166.26688577	     42.15820899	    -21.43970056	      1.02807914	     17.82767238	     10.80116512	    -11.61822371	      0.00000000	     56.60777697	      0.00000000	      0.00000000	    -36.80109051	      0.00000000	      0.00000000	      0.00000000	      0.00000000	      0.00000000	      0.00000001	      0.00000000
      0.10943734	      9.59715392	     11.24101241	     12.12296443	      5.13069031	      5.88236208	      6.53386661	    113.89353181	    167.36423905	    228.80731888	    364.34143739	    126.01083258	     11.22577956	      7.94232442	      0.00000000	      4.82668444	      8.44015165	      5.04029805	      3.33187926	     99.99464484	      7.26704984	     11.06679746	      8.35101951	     32.92539245	     24.66068864	      7.02373888	      4.54352627	      4.34624321	     38.52036444	      0.00000000	      0.00000000	      0.00000000	     26.45033498	      0.64953711	      0.00000000	      0.00000000	      1.77880472	      0.00000000	     29.87123547	      3.18712946	      4.15836165	      8.21596879	     17.27959126	      5.37931928	      9.59715392	     11.24101241	     12.12296443	      5.13069031	      5.88236208	      6.53386661	      0.00000000	      8.47089146	     14.89908030	     14.13329584	      2.92359451	     11.22577956	      7.94232442	      0.00000000	      4.82668444	      8.44015165	      6.82253574	      3.33187926	      3.03291559	      7.26704984	     11.06679746	      8.35101951	     32.92539245	     24.66068864	      7.02373888	      4.54352627	      4.34624321	     23.31658482	      0.00000000	      0.00000000	      0.00000000	     16.70555100	      8.59346425	     58.12760300	     57.61048132	      7.76089763	      7.14562972	     16.78262553	      9.41907787	     21.74767841	      3.80685166	     11.70907679	      3.95511071	     48.32366848	     48.32366848	     18.34270825	     18.34270825	     35.28700247	     35.28700247	     44.62816879	    252.43962580	     38.89892946	    -22.10409820	      1.15358188	     17.38328571	    -44.62816879	   -252.43962580	    -38.89892946	      7.76185170	     -1.64730307	      2.27542983	    -26.12735429	     52.90511832	      6.84054725	     -1.55825555	      0.61560920	    -10.69949809	     26.12735429	    -52.90511832	     -6.84054725	     -0.94603170	     -0.63115011	      1.25460949	    -94.26897401	   -508.88234250	    116.72280823	    -12.09424688	      2.40978638	      0.76163332	     94.26897401	    508.88234250	   -116.72280823	     57.78748822	     -1.40703269	     40.51340711	    -41.27680240	   -157.97923981	    -40.45827748	      5.39750346	     -1.49406478	      0.32845457	     41.27680240	    157.97923981	     40.45827748	    -20.53410410	      0.99133650	     17.07740525	      9.87938527	    -12.27519098	      0.00000000	     58.74817736	      0.00000000	      0.00000000	    -37.25785764	      0.00000000	      0.00000000	      0.00000000	      0.00000000	      0.00000000	      0.00000001	      0.00000000
      0.11064277	     10.31900130	     11.15180726	     12.02693148	      5.09135168	      5.83899944	      6.49005388	    113.32255619	    167.07320991	    225.39826724	    361.26420524	    126.11853940	     11.13549623	      7.88197422	      0.00000000	      4.80124709	      8.37066312	      5.04264567	      3.79586248	     99.92631864	      7.20948041	     10.97808460	      8.28323725	     32.75815742	     24.47025407	      6.98560653	      4.51608803	      4.54041473	     38.31455796	      0.00000000	      0.00000000	      0.00000000	     29.18843801	      0.64249878	      0.00000000	      0.00000000	      1.32424485	      0.00000000	     30.08644828	      3.62756082	      4.40584841	      8.83713723	     17.53581171	      5.34532567	     10.31900130	     11.15180726	     12.02693148	      5.09135168	      5.83899944	      6.49005388	      0.00000000	      8.40018990	     14.88086592	     14.02257251	      2.90127911	     11.13549623	      7.88197422	      0.00000000	      4.80124709	      8.37066312	      6.78147018	      3.79586248	      3.00938099	      7.20948041	     10.97808460	      8.28323725	     32.75815742	     24.47025407	      6.98560653	      4.51608803	      4.54041473	     23.14296329	      0.00000000	      0.00000000	      0.00000000	     17.09507812	      8.73695425	     58.14506482	     57.47562232	      7.64255135	      7.01936802	     16.73857362	      9.36698300	     21.69057544	      3.77777494	     11.80947285	      3.98065526	     47.95238418	     47.95238418	     18.19222948	     18.19222948	     35.14843532	     35.14843532	     44.10829631	    255.56766698	     37.77287618	    -21.70773634	      1.12994258	     17.11464626	    -44.10829631	   -255.56766698	    -37.77287618	      7.79031605	     -1.61610243	      2.42637126	    -25.12467575	     53.74324857	      7.42510005	     -1.77480000	      0.58437659	    -10.28842029	     25.12467575	    -53.74324857	     -7.42510005	     -0.95378724	     -0.61061469	      1.24547827	   -101.00259331	   -509.11219842	    116.20488908	    -12.08066030	      2.54082845	      0.65032675	    101.00259331	    509.11219842	   -116.20488908	     57.55363503	     -1.53076358	     43.29898350	    -39.66155645	   -149.14987813	    -37.56149595	      5.05508975	     -1.43004342	      0.34008216	     39.66155645	    149.14987813	     37.56149595	    -19.10999884	      0.95521987	     16.38607396	      8.77395034	    -13.01701568	     27.02317177	     60.83393422	      0.00000000	      0.00000000	    -38.53428026	      0.00000000	      0.00000000	      0.00000000	      0.00000000	      0.00000000	      0.00000001	      0.00000000
